<svg width="213" height="76" viewBox="0 0 213 76" xmlns="http://www.w3.org/2000/svg"><g fill="none" fill-rule="evenodd"><path d="M109 34V24c0-.552-.448-1-1-1h-6c-.552 0-1 .448-1 1v10H91c-.552 0-1 .448-1 1v6c0 .552.448 1 1 1h10v10c0 .552.448 1 1 1h6c.552 0 1-.448 1-1V42h10c.552 0 1-.448 1-1v-6c0-.552-.448-1-1-1h-10z" fill="#FFF"/><g fill-rule="nonzero" fill="#FFF"><path d="M169 35.416l10.43-3.494 3.176 9.483-10.43 3.493z"/><path d="M169 35.416l10.43-3.494 3.176 9.483-10.43 3.493z"/><path d="M209.814 27.55C201.977 1.424 190.676-4.652 164.55 3.186c-26.126 7.837-32.202 19.138-24.364 45.264 7.837 26.126 19.138 32.202 45.264 24.364 26.126-7.837 32.202-19.138 24.364-45.264zM197.29 45.07l-4.965 1.652 1.716 5.135c.675 2.08-.428 4.34-2.512 5.013-.43.122-.92.245-1.35.184-1.592-.062-3.124-1.1-3.676-2.69l-1.716-5.136-10.236 3.424 1.716 5.135c.674 2.08-.43 4.34-2.513 5.013-.43.123-.92.245-1.348.184-1.594-.06-3.126-1.1-3.678-2.69l-1.716-5.136-4.964 1.65c-.43.123-.92.246-1.348.184-1.594-.06-3.126-1.1-3.678-2.69-.674-2.078.43-4.34 2.513-5.013l4.965-1.65-3.31-9.844-4.964 1.65c-.43.123-.92.245-1.35.184-1.592-.06-3.125-1.1-3.676-2.69-.675-2.08.43-4.34 2.513-5.013l4.965-1.65-1.716-5.137c-.675-2.078.428-4.34 2.512-5.013 2.084-.672 4.352.428 5.026 2.507l1.716 5.135 10.236-3.424-1.716-5.136c-.674-2.078.43-4.34 2.513-5.013 2.084-.672 4.352.428 5.026 2.507l1.716 5.135 4.964-1.652c2.084-.672 4.35.428 5.026 2.507.674 2.08-.43 4.34-2.513 5.013l-4.965 1.65 3.31 9.844 4.964-1.65c2.084-.673 4.352.427 5.026 2.506.675 2.078-.43 4.34-2.513 5.013z"/></g><path d="M7.813 2h56.374C68.502 2 72 5.498 72 9.813v56.374C72 70.502 68.502 74 64.187 74H7.813C3.497 74 0 70.502 0 66.187V9.813C0 5.497 3.498 2 7.813 2zM21 60h9V41h12v19h9V17h-9v17H30V17h-9v43z" fill="#FFF"/></g></svg>